# xmcd CD database file
# Copyright (C) 1993-1998 Ti Kan
#
# Track frame offsets:
#  150
#  11850
#  22925
#  43412
#  53100
#  71180
#  84305
#  101620
#  114370
#  131095
#  143795
#  162387
#
# Disc length: 2405 seconds
#
# Revision: 1
# Processed by: cddbd v1.4b41PL1 Copyright (c) Steve Scherf et al.
# Submitted via: CDWizzard Release:4.32
#
DISCID=a509630c
DTITLE=Litter - Distorsions
DYEAR=1900
DGENRE=
TTITLE0=Action woman
TTITLE1=Whatcha gonna do about it ?
TTITLE2=Codine
TTITLE3=Somebody help me
TTITLE4=Substitute - The Mummy
TTITLE5=The Egyptian
TTITLE6=I'm so glad
TTITLE7=A legal matter
TTITLE8=Rack my mind
TTITLE9=Soul searchin'
TTITLE10=Blues one (live)
TTITLE11=I'm a man
EXTD=
EXTT0=
EXTT1=
EXTT2=
EXTT3=
EXTT4=
EXTT5=
EXTT6=
EXTT7=
EXTT8=
EXTT9=
EXTT10=
EXTT11=
PLAYORDER=
